<svg xmlns="http://www.w3.org/2000/svg" width="792" viewBox="0 0 792 612" height="612" version="1.0"><defs><clipPath id="a"><path d="M 195.832031 181.40625 L 247.609375 181.40625 L 247.609375 277.5625 L 195.832031 277.5625 Z M 195.832031 181.40625"/></clipPath><clipPath id="b"><path d="M 250.578125 181 L 302.355469 181 L 302.355469 276.925781 L 250.578125 276.925781 Z M 250.578125 181"/></clipPath></defs><g fill="#13547E"><g><g><path d="M 5.066406 -2.398438 L 5.53125 -0.667969 L 6.796875 0 L 8.128906 0.132812 L 10.929688 -0.0664062 L 13.527344 0.0664062 L 16.0625 -0.0664062 L 17.328125 0.132812 L 18.792969 0 L 31.988281 0.0664062 L 33.253906 -0.601562 L 33.988281 -2.664062 L 33.921875 -8.0625 L 33.320312 -10.0625 L 32.121094 -10.863281 L 30.722656 -10.730469 L 29.457031 -10.464844 L 28.058594 -10.664062 L 25.324219 -10.597656 L 23.992188 -10.863281 L 22.792969 -10.664062 L 20.191406 -10.796875 L 18.792969 -10.664062 L 17.460938 -11.195312 L 16.925781 -12.527344 L 16.996094 -35.121094 L 16.859375 -36.722656 L 16.996094 -39.386719 L 16.792969 -43.183594 L 16.859375 -44.453125 L 16.195312 -45.917969 L 14.863281 -46.71875 L 12.261719 -46.71875 L 10.929688 -46.449219 L 8.265625 -46.71875 L 6.996094 -46.519531 L 5.597656 -45.984375 L 5 -44.519531 L 5 -35.1875 L 4.863281 -33.921875 L 5 -32.589844 L 4.796875 -30.125 L 4.863281 -28.65625 L 5 -27.390625 Z M 5.066406 -2.398438" transform="translate(301.408 226.932)"/></g></g></g><g fill="#13547E"><g><g><path d="M 4.796875 -1.933594 L 5.664062 -0.667969 L 6.929688 0.0664062 L 21.992188 -0.0664062 L 23.191406 0.132812 L 27.257812 -0.0664062 L 31.324219 0.199219 L 32.589844 0.0664062 L 33.988281 -0.601562 L 34.589844 -1.867188 L 34.722656 -3.132812 L 34.65625 -7.265625 L 34.789062 -8.53125 L 33.921875 -9.863281 L 31.921875 -10.53125 L 23.125 -10.664062 L 21.859375 -10.464844 L 20.394531 -10.597656 L 18.925781 -10.464844 L 17.527344 -11.261719 L 16.925781 -13.328125 L 16.996094 -16.59375 L 17.59375 -17.992188 L 18.792969 -18.726562 L 21.394531 -18.726562 L 22.726562 -18.859375 L 26.257812 -18.660156 L 28.058594 -18.792969 L 29.457031 -18.660156 L 30.65625 -18.726562 L 31.988281 -19.460938 L 32.65625 -20.726562 L 32.789062 -25.992188 L 32.65625 -27.324219 L 32.054688 -28.589844 L 30.921875 -29.324219 L 28.257812 -29.390625 L 26.925781 -29.257812 L 25.523438 -29.257812 L 23.992188 -29.390625 L 18.726562 -29.324219 L 17.59375 -30.054688 L 16.792969 -31.257812 L 16.660156 -33.320312 L 17.328125 -35.253906 L 19.394531 -35.855469 L 32.1875 -35.921875 L 33.589844 -36.652344 L 34.320312 -37.855469 L 34.1875 -40.585938 L 33.988281 -41.851562 L 34.054688 -43.320312 L 34.253906 -44.585938 L 33.589844 -45.917969 L 32.1875 -46.519531 L 26.859375 -46.585938 L 25.65625 -46.449219 L 24.324219 -46.652344 L 21.394531 -46.519531 L 20.058594 -46.652344 L 17.460938 -46.585938 L 16.261719 -46.71875 L 7.53125 -46.519531 L 5.597656 -46.050781 L 4.933594 -44.585938 L 5.066406 -41.917969 L 4.796875 -39.988281 L 5.066406 -36.585938 L 4.933594 -35.1875 L 5.066406 -33.988281 L 5.066406 -22.058594 L 4.863281 -20.660156 L 5.066406 -18.0625 L 4.933594 -15.394531 L 5.132812 -13.996094 L 5 -12.527344 L 5.066406 -11.261719 L 4.863281 -10.0625 L 5 -8.53125 L 5 -7.199219 L 5.132812 -4.597656 L 5.066406 -3.265625 Z M 4.796875 -1.933594" transform="translate(337.254 226.932)"/></g></g></g><g fill="#13547E"><g><g><path d="M 24.390625 0.800781 L 26.125 0.867188 L 29.722656 0.53125 L 31.054688 0.265625 L 32.324219 0.199219 L 33.457031 -0.132812 L 38.386719 -2.265625 L 39.320312 -3.066406 L 41.519531 -4.464844 L 43.453125 -6.53125 L 45.585938 -9.664062 L 47.117188 -12.730469 L 47.984375 -15.59375 L 48.050781 -16.859375 L 48.449219 -18.195312 L 48.71875 -23.257812 L 48.515625 -24.589844 L 47.71875 -25.925781 L 45.785156 -26.523438 L 29.058594 -26.523438 L 26.992188 -25.792969 L 26.390625 -24.523438 L 26.257812 -19.527344 L 26.523438 -18.261719 L 26.925781 -17.128906 L 28.191406 -16.527344 L 29.457031 -16.527344 L 30.65625 -16.394531 L 34.65625 -16.59375 L 35.589844 -15.859375 L 35.855469 -14.726562 L 35.320312 -13.660156 L 33.390625 -11.796875 L 32.324219 -11.261719 L 29.789062 -10.464844 L 28.457031 -10.261719 L 26.523438 -10.195312 L 24.457031 -10.328125 L 23.257812 -10.597656 L 22.058594 -11.0625 L 19.660156 -12.328125 L 17.660156 -13.929688 L 16.925781 -15.0625 L 16.394531 -16.195312 L 15.660156 -17.394531 L 15.195312 -18.660156 L 14.796875 -25.324219 L 15.527344 -27.722656 L 15.792969 -29.058594 L 16.792969 -31.523438 L 18.527344 -33.390625 L 20.726562 -34.921875 L 21.859375 -35.453125 L 24.457031 -36.320312 L 26.324219 -36.386719 L 29.789062 -35.988281 L 31.054688 -35.65625 L 34.386719 -33.589844 L 35.054688 -32.523438 L 36.519531 -31.457031 L 37.988281 -30.789062 L 44.519531 -30.789062 L 45.785156 -30.921875 L 46.917969 -31.324219 L 47.382812 -32.789062 L 45.25 -37.71875 L 44.316406 -38.652344 L 42.652344 -40.785156 L 40.71875 -42.71875 L 36.1875 -45.519531 L 34.722656 -45.917969 L 33.65625 -46.382812 L 32.324219 -46.585938 L 30.855469 -46.984375 L 24.257812 -47.316406 L 20.191406 -46.652344 L 15.128906 -44.851562 L 13.929688 -44.25 L 10.597656 -41.984375 L 8.597656 -40.121094 L 7.730469 -38.988281 L 7.0625 -37.921875 L 6.066406 -36.988281 L 5.332031 -35.722656 L 3.265625 -30.65625 L 3.199219 -29.457031 L 2.464844 -26.523438 L 2.597656 -23.191406 L 2.464844 -21.324219 L 2.53125 -19.925781 L 3.664062 -14.796875 L 5.066406 -11.128906 L 5.796875 -9.863281 L 8.195312 -6.863281 L 10.0625 -4.933594 L 14.328125 -2.066406 L 15.527344 -1.464844 L 19.261719 -0.132812 L 22.992188 0.667969 Z M 24.390625 0.800781" transform="translate(375.431 226.932)"/></g></g></g><g fill="#13547E"><g><g><path d="M 0.867188 -1.800781 L 1.199219 -0.398438 L 2.53125 -0.0664062 L 8.398438 -0.0664062 L 10.128906 0.132812 L 11.664062 -0.53125 L 12.863281 -1.734375 L 13.996094 -4 L 15.128906 -5.265625 L 16.726562 -5.929688 L 18.0625 -5.796875 L 21.792969 -5.863281 L 23.191406 -5.664062 L 24.726562 -5.863281 L 25.925781 -5.863281 L 27.324219 -5.730469 L 30.457031 -5.863281 L 32.65625 -5.132812 L 34.054688 -4.066406 L 34.386719 -2.867188 L 35.121094 -1.667969 L 36.253906 -0.601562 L 37.988281 0.0664062 L 39.1875 -0.0664062 L 41.519531 0.132812 L 45.652344 0 L 46.851562 -0.398438 L 47.117188 -1.800781 L 46.71875 -3.464844 L 46.25 -4.664062 L 45.382812 -5.796875 L 44.984375 -7.132812 L 44.316406 -8.128906 L 43.917969 -9.398438 L 42.785156 -11.796875 L 42.320312 -13.0625 L 41.652344 -14.195312 L 40.71875 -16.660156 L 39.988281 -17.726562 L 39.453125 -19.058594 L 38.855469 -20.191406 L 38.386719 -21.527344 L 37.789062 -22.527344 L 37.386719 -23.859375 L 36.652344 -25.058594 L 36.121094 -26.191406 L 35.453125 -27.324219 L 35.121094 -28.589844 L 33.789062 -30.921875 L 33.390625 -32.1875 L 32.1875 -34.722656 L 31.855469 -35.789062 L 30.855469 -38.121094 L 29.523438 -40.585938 L 28.457031 -43.117188 L 27.855469 -44.117188 L 27.457031 -45.382812 L 26.257812 -46.652344 L 23.992188 -47.25 L 21.859375 -46.585938 L 20.59375 -45.382812 L 20.191406 -44.183594 L 17.328125 -38.1875 L 16.59375 -36.988281 L 12.863281 -28.589844 L 12.527344 -27.457031 L 11.796875 -26.257812 L 10.730469 -23.859375 L 9.730469 -22.125 L 9.261719 -20.859375 L 8.332031 -19.125 L 7.929688 -17.726562 L 7.332031 -16.660156 L 6.863281 -15.328125 L 5 -11.863281 L 3.066406 -6.996094 L 2.265625 -5.929688 L 1.667969 -4.597656 Z M 21.460938 -16.460938 L 20.191406 -16.996094 L 19.992188 -18.328125 L 22.660156 -24.390625 L 23.257812 -25.457031 L 24.125 -26.125 L 24.925781 -25.589844 L 25.792969 -22.992188 L 26.523438 -21.859375 L 26.789062 -20.792969 L 27.457031 -19.460938 L 27.925781 -18.261719 L 27.789062 -17.0625 L 26.65625 -16.527344 Z M 21.460938 -16.460938" transform="translate(426.468 226.932)"/></g></g></g><g fill="#13547E"><g><g><path d="M 24.523438 0.667969 L 28.523438 0.867188 L 34.988281 -0.464844 L 38.652344 -2.066406 L 39.652344 -2.730469 L 40.851562 -3.464844 L 41.984375 -4.265625 L 42.851562 -5.132812 L 43.585938 -6.265625 L 44.71875 -7.132812 L 46.71875 -10.597656 L 47.316406 -11.796875 L 47.652344 -13.0625 L 48.117188 -14.394531 L 48.316406 -15.660156 L 47.917969 -16.859375 L 46.25 -17.59375 L 39.121094 -17.660156 L 37.652344 -16.996094 L 36.320312 -15.726562 L 35.789062 -14.59375 L 33.253906 -11.863281 L 30.988281 -10.730469 L 29.65625 -10.328125 L 28.257812 -10.195312 L 24.523438 -10.261719 L 20.925781 -11.597656 L 19.660156 -12.195312 L 18.792969 -13.128906 L 16.328125 -16.328125 L 15.792969 -17.460938 L 14.996094 -20.058594 L 14.796875 -23.191406 L 14.863281 -25.324219 L 15.328125 -26.523438 L 15.394531 -27.855469 L 15.792969 -29.058594 L 16.925781 -31.457031 L 18.59375 -33.523438 L 20.792969 -35.121094 L 22.058594 -35.65625 L 24.390625 -36.320312 L 28.523438 -36.1875 L 31.054688 -35.722656 L 32.457031 -35.253906 L 34.386719 -33.65625 L 35.386719 -32.589844 L 35.988281 -31.457031 L 37.1875 -30.191406 L 38.652344 -29.589844 L 45.382812 -29.457031 L 46.71875 -29.589844 L 47.785156 -30.191406 L 48.183594 -31.589844 L 47.652344 -32.921875 L 47.449219 -34.121094 L 46.382812 -36.652344 L 43.917969 -40.054688 L 40.453125 -43.183594 L 38.988281 -44.183594 L 35.1875 -45.917969 L 32.589844 -46.652344 L 29.257812 -47.117188 L 23.191406 -47.117188 L 22.058594 -46.984375 L 20.792969 -46.585938 L 18.195312 -46.050781 L 16.925781 -45.585938 L 15.929688 -44.984375 L 14.726562 -44.519531 L 10.0625 -41.519531 L 9.261719 -40.453125 L 7.464844 -38.785156 L 6.664062 -37.652344 L 3.597656 -31.65625 L 2.398438 -23.324219 L 2.664062 -21.191406 L 2.664062 -18.527344 L 3.332031 -15.929688 L 3.867188 -14.660156 L 4.066406 -13.460938 L 4.730469 -12.261719 L 5.199219 -11.128906 L 7.863281 -7.265625 L 10.261719 -4.933594 L 11.394531 -4.199219 L 12.394531 -3.398438 L 16.925781 -0.933594 L 18.261719 -0.464844 L 19.261719 -0.199219 L 20.660156 0.265625 L 22.058594 0.398438 L 23.257812 0.667969 Z M 24.523438 0.667969" transform="translate(474.84 226.932)"/></g></g></g><g fill="#13547E"><g><g><path d="M 15.328125 -1.867188 L 16.0625 -0.734375 L 17.328125 -0.0664062 L 19.726562 0.0664062 L 21.058594 -0.0664062 L 22.460938 0 L 24.324219 -0.0664062 L 26.324219 -0.734375 L 26.992188 -2.066406 L 26.992188 -3.199219 L 26.859375 -4.597656 L 26.925781 -5.863281 L 26.859375 -7.0625 L 27.191406 -11.128906 L 26.992188 -12.527344 L 27.191406 -16.394531 L 26.925781 -17.59375 L 27.257812 -19.527344 L 29.589844 -23.59375 L 30.125 -24.859375 L 30.855469 -25.992188 L 32.523438 -28.191406 L 40.1875 -40.851562 L 40.984375 -41.851562 L 41.453125 -43.050781 L 42.386719 -44.652344 L 42.1875 -46.25 L 40.917969 -46.785156 L 39.585938 -46.585938 L 36.988281 -46.785156 L 35.589844 -46.585938 L 33.054688 -46.585938 L 31.789062 -46.71875 L 30.125 -46.050781 L 28.722656 -44.785156 L 27.589844 -42.519531 L 26.722656 -41.253906 L 26.324219 -39.988281 L 24.792969 -37.789062 L 23.792969 -35.386719 L 21.59375 -31.789062 L 20.660156 -31.65625 L 19.125 -34.054688 L 18.527344 -35.253906 L 18.128906 -36.585938 L 14.796875 -42.453125 L 14.0625 -43.585938 L 13.527344 -44.917969 L 12.0625 -45.984375 L 10.398438 -46.71875 L 1.597656 -46.585938 L 0.132812 -46.183594 L 0 -44.71875 L 0.667969 -43.117188 L 7.863281 -31.722656 L 8.398438 -30.589844 L 14.328125 -21.257812 L 14.863281 -19.527344 L 15.195312 -17.59375 L 15.128906 -12.328125 L 15.261719 -10.996094 L 15.328125 -9.730469 L 15.195312 -8.53125 L 15.128906 -5.996094 L 15.460938 -3.265625 Z M 15.328125 -1.867188" transform="translate(525.677 226.932)"/></g></g></g><g fill="#13547E"><g><g><path d="M 4.074219 -1.574219 L 4.5625 -0.597656 L 6.300781 0.0546875 L 25.527344 -0.0546875 L 27.046875 -0.597656 L 27.644531 -1.574219 L 27.535156 -2.769531 L 27.589844 -3.855469 L 27.699219 -4.832031 L 27.535156 -6.027344 L 27.699219 -7.058594 L 26.992188 -8.253906 L 26.125 -8.796875 L 24.929688 -8.636719 L 15.371094 -8.742188 L 14.230469 -9.234375 L 13.902344 -10.425781 L 13.957031 -12.4375 L 13.792969 -13.46875 L 13.847656 -14.664062 L 13.742188 -15.75 L 13.847656 -16.890625 L 13.792969 -19.605469 L 13.957031 -21.125 L 13.792969 -22.320312 L 13.957031 -23.460938 L 13.792969 -31.933594 L 13.902344 -33.128906 L 13.792969 -35.789062 L 13.25 -37.417969 L 11.839844 -38.070312 L 6.191406 -37.960938 L 4.617188 -37.367188 L 3.910156 -35.898438 L 4.234375 -33.074219 L 4.128906 -32.042969 L 3.964844 -30.902344 L 4.128906 -29.816406 L 4.234375 -28.785156 L 4.074219 -27.589844 L 4.128906 -26.558594 L 4.019531 -25.472656 L 4.183594 -24.332031 L 4.019531 -23.351562 L 4.128906 -22.265625 L 3.964844 -21.234375 L 4.128906 -18.898438 L 3.964844 -17.867188 L 4.128906 -15.695312 L 3.964844 -14.609375 L 4.019531 -12.4375 L 4.128906 -11.460938 L 4.074219 -4.832031 L 4.183594 -3.746094 L 3.964844 -2.714844 Z M 4.074219 -1.574219" transform="translate(301.408 276.86)"/></g></g></g><g fill="#13547E"><g><g><path d="M 2.605469 -1.574219 L 3.148438 -0.433594 L 4.234375 -0.0546875 L 20.367188 0.0546875 L 21.398438 -0.488281 L 21.996094 -1.464844 L 21.996094 -2.660156 L 21.886719 -3.640625 L 22.050781 -6.953125 L 21.289062 -7.875 L 17.652344 -9.015625 L 17.054688 -10.101562 L 17.160156 -14.554688 L 16.945312 -16.726562 L 17.160156 -19.007812 L 17.054688 -20.636719 L 17.160156 -22.320312 L 17.054688 -23.351562 L 17.160156 -24.441406 L 17.054688 -25.582031 L 17.054688 -27.859375 L 17.652344 -28.839844 L 18.683594 -29.4375 L 19.878906 -29.492188 L 20.910156 -30.085938 L 21.507812 -31.121094 L 21.507812 -34.324219 L 21.617188 -35.300781 L 21.507812 -36.386719 L 21.074219 -37.472656 L 19.335938 -37.960938 L 12.4375 -38.015625 L 11.242188 -37.910156 L 7.929688 -37.960938 L 6.898438 -37.910156 L 4.777344 -38.015625 L 3.585938 -37.472656 L 2.988281 -36.332031 L 2.988281 -35.300781 L 2.878906 -34.378906 L 2.878906 -33.183594 L 2.988281 -32.097656 L 2.988281 -31.066406 L 3.53125 -30.035156 L 6.84375 -28.894531 L 7.550781 -27.914062 L 7.386719 -23.300781 L 7.441406 -22.375 L 7.601562 -21.125 L 7.550781 -18.898438 L 7.441406 -17.8125 L 7.65625 -15.695312 L 7.386719 -14.609375 L 7.601562 -12.273438 L 7.496094 -10.15625 L 6.953125 -8.960938 L 3.367188 -7.820312 L 2.714844 -6.789062 L 2.605469 -5.757812 Z M 2.605469 -1.574219" transform="translate(330.616 276.86)"/></g></g></g><g fill="#13547E"><g><g><path d="M 32.042969 -0.867188 L 33.617188 -0.164062 L 35.03125 0.273438 L 36.277344 -0.324219 L 36.769531 -1.464844 L 37.039062 -16.238281 L 36.824219 -17.757812 L 36.929688 -18.953125 L 36.714844 -25.472656 L 36.875 -27.644531 L 36.769531 -28.675781 L 36.769531 -30.847656 L 36.984375 -31.933594 L 36.875 -33.5625 L 36.984375 -36.386719 L 36.332031 -37.367188 L 35.140625 -37.910156 L 34.050781 -38.015625 L 33.019531 -38.015625 L 31.824219 -37.910156 L 30.683594 -38.070312 L 29.707031 -37.960938 L 28.621094 -38.015625 L 27.316406 -37.472656 L 26.773438 -36.332031 L 26.71875 -26.449219 L 26.9375 -25.308594 L 26.9375 -24.277344 L 26.71875 -23.136719 L 26.773438 -20.964844 L 26.503906 -20.09375 L 25.742188 -20.3125 L 23.351562 -22.757812 L 22.539062 -23.40625 L 20.636719 -25.363281 L 19.769531 -26.015625 L 19.171875 -26.773438 L 18.03125 -27.96875 L 16.347656 -29.382812 L 15.75 -30.195312 L 14.71875 -30.902344 L 14.175781 -31.71875 L 13.25 -32.367188 L 12.546875 -33.292969 L 9.613281 -36.277344 L 7.441406 -37.746094 L 5.972656 -38.179688 L 4.671875 -37.527344 L 3.964844 -36.496094 L 4.074219 -28.894531 L 3.964844 -27.808594 L 4.128906 -25.582031 L 4.019531 -24.601562 L 4.074219 -23.460938 L 3.910156 -22.320312 L 4.128906 -14.554688 L 4.019531 -13.578125 L 4.019531 -12.546875 L 3.910156 -11.351562 L 3.910156 -10.320312 L 4.074219 -9.179688 L 4.019531 -6.953125 L 4.128906 -5.867188 L 3.964844 -3.800781 L 4.128906 -2.714844 L 4.128906 -1.683594 L 4.617188 -0.488281 L 5.648438 0.109375 L 7.496094 0 L 10.210938 0.164062 L 11.351562 0 L 12.601562 0.109375 L 13.6875 -0.433594 L 14.175781 -1.519531 L 14.011719 -2.605469 L 14.175781 -15.914062 L 13.957031 -17.054688 L 14.5 -17.707031 L 15.207031 -17.542969 L 22.972656 -9.9375 L 23.84375 -9.234375 L 29.109375 -3.964844 L 29.816406 -3.09375 L 30.683594 -2.390625 L 31.335938 -1.574219 Z M 32.042969 -0.867188" transform="translate(355.264 276.86)"/></g></g></g><g fill="#13547E"><g><g><path d="M 4.183594 -1.628906 L 4.5625 -0.488281 L 6.136719 0.109375 L 11.839844 0.0546875 L 13.414062 -0.488281 L 13.957031 -1.683594 L 13.792969 -8.253906 L 13.902344 -9.449219 L 13.902344 -12.816406 L 14.390625 -13.792969 L 15.75 -14.445312 L 17.378906 -14.121094 L 18.410156 -13.304688 L 20.636719 -9.613281 L 21.996094 -6.789062 L 22.648438 -5.867188 L 23.136719 -4.941406 L 23.84375 -4.019531 L 25.308594 -1.195312 L 26.339844 -0.378906 L 28.1875 0 L 34.214844 0 L 35.355469 0.109375 L 36.277344 -0.378906 L 36.550781 -1.628906 L 36.0625 -2.933594 L 35.300781 -3.746094 L 34.757812 -4.671875 L 34.324219 -5.703125 L 33.507812 -6.625 L 32.476562 -8.472656 L 31.824219 -9.339844 L 31.390625 -10.320312 L 30.738281 -11.296875 L 29.164062 -14.121094 L 27.265625 -16.835938 L 27.265625 -18.03125 L 27.753906 -19.28125 L 28.730469 -19.878906 L 30.304688 -21.453125 L 31.5 -23.300781 L 32.042969 -24.332031 L 32.316406 -25.308594 L 32.804688 -26.449219 L 33.347656 -28.511719 L 33.402344 -29.542969 L 33.726562 -31.824219 L 33.617188 -33.019531 L 33.835938 -34.050781 L 33.78125 -36.226562 L 33.347656 -37.472656 L 32.207031 -38.070312 L 27.265625 -37.910156 L 25.6875 -38.070312 L 24.386719 -37.417969 L 23.789062 -36.277344 L 23.949219 -32.964844 L 23.679688 -30.683594 L 23.136719 -28.511719 L 22.703125 -27.480469 L 21.996094 -26.667969 L 21.34375 -25.796875 L 20.527344 -25.089844 L 19.550781 -24.492188 L 18.628906 -24.058594 L 16.238281 -23.570312 L 14.933594 -23.515625 L 13.957031 -24.113281 L 14.011719 -25.253906 L 13.847656 -26.230469 L 14.011719 -34.105469 L 13.847656 -35.140625 L 13.792969 -36.226562 L 13.25 -37.417969 L 12.273438 -37.960938 L 11.132812 -38.070312 L 10.046875 -37.960938 L 5.648438 -38.070312 L 4.777344 -37.367188 L 4.019531 -36.386719 L 4.019531 -35.246094 L 4.128906 -34.160156 L 3.964844 -30.902344 L 4.019531 -29.871094 L 4.183594 -28.785156 L 3.910156 -26.613281 L 4.074219 -25.472656 L 4.183594 -12.4375 L 4.019531 -11.460938 L 4.074219 -10.320312 L 3.910156 -8.148438 L 4.183594 -5.972656 L 4.074219 -4.777344 L 4.128906 -3.691406 L 4.019531 -2.714844 Z M 4.183594 -1.628906" transform="translate(396.199 276.86)"/></g></g></g><g fill="#13547E"><g><g><path d="M 7.277344 0.164062 L 9.9375 0.0546875 L 10.917969 0.109375 L 12.164062 0 L 13.304688 -0.433594 L 13.792969 -1.574219 L 13.742188 -2.660156 L 13.792969 -3.855469 L 13.6875 -5.867188 L 13.792969 -6.898438 L 13.742188 -8.148438 L 14.230469 -9.125 L 15.476562 -9.722656 L 16.671875 -9.832031 L 17.8125 -9.613281 L 23.40625 -10.046875 L 28.566406 -12.109375 L 29.382812 -12.761719 L 30.140625 -13.632812 L 30.847656 -14.335938 L 31.554688 -15.152344 L 32.695312 -16.890625 L 33.617188 -19.007812 L 33.78125 -20.203125 L 34.105469 -21.074219 L 34.214844 -25.527344 L 34 -26.449219 L 33.835938 -27.644531 L 33.183594 -29.652344 L 32.152344 -31.5 L 30.847656 -33.292969 L 28.402344 -35.410156 L 26.613281 -36.605469 L 24.441406 -37.257812 L 23.515625 -37.636719 L 22.429688 -37.636719 L 21.34375 -38.015625 L 19.714844 -38.070312 L 17.976562 -38.015625 L 16.78125 -37.855469 L 13.46875 -37.910156 L 12.382812 -38.070312 L 9.015625 -37.855469 L 7.820312 -37.910156 L 6.84375 -38.070312 L 5.703125 -37.855469 L 4.5625 -37.257812 L 4.074219 -36.386719 L 4.128906 -29.816406 L 3.910156 -27.644531 L 4.019531 -26.613281 L 3.964844 -12.546875 L 4.074219 -11.515625 L 4.019531 -1.464844 L 4.617188 -0.433594 L 6.300781 0.109375 Z M 15.425781 -18.410156 L 14.335938 -19.0625 L 13.847656 -19.984375 L 13.6875 -24.386719 L 13.792969 -25.527344 L 13.792969 -27.753906 L 14.335938 -28.785156 L 15.476562 -29.328125 L 21.125 -29.164062 L 22.210938 -28.675781 L 23.082031 -28.078125 L 23.789062 -27.371094 L 24.332031 -26.285156 L 24.492188 -25.308594 L 24.601562 -23.789062 L 24.492188 -22.320312 L 24.113281 -21.34375 L 23.625 -20.476562 L 22.917969 -19.605469 L 22.050781 -18.953125 L 21.179688 -18.683594 L 19.496094 -18.464844 L 16.726562 -18.519531 Z M 15.425781 -18.410156" transform="translate(448.535 276.86)"/></g></g></g><g fill="#13547E"><g><g><path d="M 4.183594 -1.738281 L 4.5625 -0.542969 L 5.648438 0 L 6.679688 0.0546875 L 8.90625 -0.109375 L 10.046875 0 L 11.675781 0 L 13.359375 -0.542969 L 13.742188 -1.574219 L 13.847656 -2.714844 L 13.632812 -3.855469 L 13.792969 -6.191406 L 13.6875 -9.558594 L 14.175781 -10.644531 L 15.261719 -11.1875 L 16.238281 -11.1875 L 17.214844 -11.242188 L 18.574219 -10.808594 L 19.441406 -9.882812 L 20.855469 -7.984375 L 21.234375 -6.953125 L 22.757812 -4.234375 L 23.460938 -3.203125 L 23.949219 -2.28125 L 24.601562 -1.410156 L 25.6875 -0.433594 L 27.046875 -0.109375 L 29 0 L 30.195312 -0.109375 L 31.28125 0 L 33.453125 0 L 34.648438 -0.109375 L 35.789062 -0.378906 L 36.007812 -1.519531 L 35.300781 -2.878906 L 33.5625 -5.539062 L 33.074219 -6.464844 L 32.421875 -7.441406 L 31.878906 -8.417969 L 31.175781 -9.285156 L 29.542969 -12.109375 L 29.382812 -13.414062 L 29.980469 -14.554688 L 31.5 -16.023438 L 32.152344 -16.945312 L 32.53125 -17.976562 L 33.128906 -18.953125 L 33.507812 -19.878906 L 34.105469 -21.941406 L 34.160156 -26.230469 L 33.890625 -27.265625 L 33.726562 -28.296875 L 33.453125 -29.382812 L 31.988281 -32.367188 L 31.226562 -33.183594 L 30.738281 -34 L 28.023438 -36.0625 L 26.125 -37.039062 L 21.617188 -37.960938 L 20.257812 -38.070312 L 18.683594 -38.015625 L 17.488281 -38.070312 L 16.402344 -37.960938 L 15.207031 -38.070312 L 14.285156 -37.960938 L 11.023438 -38.070312 L 9.992188 -37.910156 L 7.765625 -38.125 L 6.734375 -37.960938 L 5.539062 -38.015625 L 4.507812 -37.527344 L 4.074219 -36.386719 L 3.910156 -21.179688 L 4.074219 -19.605469 L 4.074219 -16.890625 L 3.964844 -15.75 L 3.910156 -13.6875 L 4.074219 -12.492188 L 3.910156 -10.265625 L 4.128906 -7.113281 L 4.019531 -5.972656 Z M 15.261719 -19.984375 L 14.335938 -20.476562 L 13.792969 -21.617188 L 13.632812 -27.699219 L 14.285156 -28.785156 L 15.371094 -29.328125 L 16.238281 -29.382812 L 19.226562 -29.328125 L 21.722656 -29 L 23.40625 -27.96875 L 23.949219 -27.15625 L 24.332031 -26.285156 L 24.441406 -24.710938 L 24.277344 -23.246094 L 23.84375 -22.160156 L 23.246094 -21.234375 L 22.59375 -20.582031 L 21.777344 -20.203125 L 17.542969 -19.824219 L 16.457031 -19.984375 Z M 15.261719 -19.984375" transform="translate(484.258 276.86)"/></g></g></g><g fill="#13547E"><g><g><path d="M 20.3125 0.652344 L 23.351562 0.597656 L 26.613281 0.164062 L 30.683594 -1.195312 L 32.476562 -2.171875 L 33.292969 -2.824219 L 34.324219 -3.3125 L 35.84375 -4.617188 L 36.550781 -5.59375 L 37.3125 -6.355469 L 39.699219 -9.992188 L 40.515625 -12.058594 L 40.949219 -14.121094 L 41.003906 -15.097656 L 41.277344 -16.183594 L 41.328125 -17.324219 L 41.546875 -18.898438 L 41.382812 -21.617188 L 41.003906 -23.84375 L 39.644531 -27.914062 L 38.613281 -29.925781 L 37.417969 -31.554688 L 35.898438 -33.238281 L 34.324219 -34.59375 L 33.074219 -35.464844 L 31.445312 -36.171875 L 30.632812 -36.769531 L 26.449219 -38.070312 L 23.300781 -38.613281 L 21.832031 -38.667969 L 16.074219 -37.855469 L 12.003906 -36.332031 L 11.1875 -35.734375 L 10.210938 -35.246094 L 8.363281 -33.890625 L 5.703125 -30.792969 L 4.019531 -27.914062 L 3.203125 -25.851562 L 2.28125 -21.667969 L 2.117188 -17.269531 L 2.28125 -16.128906 L 2.550781 -15.152344 L 2.660156 -14.121094 L 3.148438 -12.058594 L 5.648438 -7.113281 L 6.300781 -6.464844 L 7.007812 -5.59375 L 7.820312 -4.832031 L 8.417969 -4.128906 L 10.210938 -2.714844 L 14.445312 -0.542969 L 16.023438 0 L 17.214844 0.109375 L 19.171875 0.542969 Z M 23.351562 -8.960938 L 20.367188 -8.960938 L 19.171875 -9.125 L 17.214844 -9.9375 L 16.347656 -10.425781 L 14.882812 -11.621094 L 14.175781 -12.382812 L 13.414062 -13.414062 L 13.144531 -14.285156 L 12.652344 -15.261719 L 12.21875 -17.269531 L 12.21875 -20.582031 L 12.492188 -21.5625 L 12.652344 -22.59375 L 13.089844 -23.570312 L 13.414062 -24.546875 L 14.71875 -26.285156 L 17.433594 -28.132812 L 18.140625 -28.402344 L 20.257812 -28.949219 L 21.777344 -29.054688 L 24.386719 -28.730469 L 25.363281 -28.511719 L 26.339844 -28.078125 L 28.023438 -26.882812 L 30.140625 -24.65625 L 30.792969 -22.59375 L 31.28125 -21.5625 L 31.445312 -20.582031 L 31.335938 -17.269531 L 30.902344 -15.261719 L 30.523438 -14.285156 L 29.925781 -13.304688 L 29.597656 -12.492188 L 28.839844 -11.621094 L 26.230469 -9.832031 L 25.253906 -9.558594 L 24.441406 -9.179688 Z M 23.351562 -8.960938" transform="translate(521.881 276.86)"/></g></g></g><g fill="#13547E"><g><g><path d="M 2.167969 0.015625 L 2.726562 0 L 2.964844 -0.0820312 L 3.050781 -0.316406 L 3.074219 -0.746094 L 3.050781 -1.0625 L 3.066406 -1.238281 L 3.058594 -1.570312 L 3.074219 -1.71875 L 3.050781 -1.902344 L 3.066406 -3.242188 L 3.042969 -3.414062 L 3.066406 -4.136719 L 3.132812 -4.386719 L 3.289062 -4.488281 L 3.613281 -4.503906 L 3.921875 -4.460938 L 4.097656 -4.488281 L 4.246094 -4.480469 L 4.386719 -4.570312 L 4.488281 -4.753906 L 4.496094 -5.542969 L 4.40625 -5.710938 L 4.246094 -5.816406 L 3.730469 -5.816406 L 3.574219 -5.832031 L 3.398438 -5.808594 L 3.242188 -5.824219 L 2.566406 -5.792969 L 2.402344 -5.824219 L 2.242188 -5.832031 L 2.070312 -5.808594 L 1.886719 -5.824219 L 1.738281 -5.792969 L 1.246094 -5.816406 L 0.988281 -5.792969 L 0.40625 -5.824219 L 0.25 -5.742188 L 0.148438 -5.550781 L 0.15625 -5.386719 L 0.140625 -4.96875 L 0.15625 -4.710938 L 0.234375 -4.5625 L 0.382812 -4.480469 L 0.546875 -4.496094 L 1.339844 -4.480469 L 1.496094 -4.394531 L 1.585938 -4.230469 L 1.570312 -3.964844 L 1.585938 -3.730469 L 1.578125 -3.546875 L 1.585938 -3.382812 L 1.570312 -3.148438 L 1.59375 -1.910156 L 1.578125 -1.746094 L 1.570312 -1.070312 L 1.585938 -0.898438 L 1.578125 -0.414062 L 1.5625 -0.257812 L 1.671875 -0.0742188 L 1.910156 0.0078125 Z M 2.167969 0.015625" transform="translate(559.447 244.223)"/></g></g></g><g fill="#13547E"><g><g><path d="M 0.863281 0.0234375 L 1.03125 0 L 1.355469 0.015625 L 1.539062 -0.0078125 L 1.804688 0.0078125 L 2.035156 -0.0898438 L 2.136719 -0.242188 L 2.109375 -1.113281 L 2.136719 -1.371094 L 2.128906 -1.546875 L 2.144531 -1.84375 L 2.128906 -2.027344 L 2.128906 -2.351562 L 2.203125 -2.425781 L 2.285156 -2.394531 L 2.417969 -2.285156 L 2.519531 -2.160156 L 2.859375 -1.820312 L 2.964844 -1.6875 L 3.191406 -1.472656 L 3.367188 -1.347656 L 3.546875 -1.339844 L 3.714844 -1.460938 L 3.832031 -1.585938 L 3.929688 -1.6875 L 4.164062 -1.960938 L 4.28125 -2.042969 L 4.621094 -2.394531 L 4.726562 -2.441406 L 4.796875 -2.320312 L 4.777344 -1.863281 L 4.804688 -1.527344 L 4.785156 -1.203125 L 4.804688 -0.898438 L 4.785156 -0.746094 L 4.804688 -0.375 L 4.804688 -0.25 L 4.871094 -0.0585938 L 5.042969 -0.0078125 L 6.050781 0.0234375 L 6.222656 -0.0664062 L 6.324219 -0.308594 L 6.300781 -0.738281 L 6.316406 -0.90625 L 6.300781 -3.398438 L 6.316406 -3.582031 L 6.308594 -4.40625 L 6.316406 -4.5625 L 6.300781 -4.917969 L 6.308594 -5.0625 L 6.300781 -5.402344 L 6.316406 -5.558594 L 6.214844 -5.734375 L 6.042969 -5.824219 L 5.800781 -5.75 L 5.625 -5.644531 L 5.277344 -5.277344 L 5.167969 -5.144531 L 5.070312 -5.050781 L 4.953125 -4.902344 L 4.222656 -4.15625 L 4.113281 -4.015625 L 3.605469 -3.5 L 3.457031 -3.398438 L 3.28125 -3.464844 L 3.183594 -3.605469 L 3.066406 -3.722656 L 2.917969 -3.914062 L 2.734375 -4.082031 L 1.976562 -4.917969 L 1.863281 -5.019531 L 1.644531 -5.277344 L 1.511719 -5.394531 L 1.296875 -5.617188 L 1.105469 -5.757812 L 0.871094 -5.824219 L 0.691406 -5.742188 L 0.597656 -5.566406 L 0.625 -5.0625 L 0.597656 -4.738281 L 0.613281 -4.585938 L 0.605469 -3.257812 L 0.625 -3.089844 L 0.597656 -2.253906 L 0.613281 -2.09375 L 0.605469 -0.257812 L 0.699219 -0.0820312 Z M 0.863281 0.0234375" transform="translate(564.092 244.223)"/></g></g></g><g clip-path="url(#a)"><path fill="#515D52" d="M 195.832031 277.265625 L 208.816406 277.265625 L 221.746094 260.824219 L 234.625 277.265625 L 247.609375 277.265625 L 221.695312 244.328125 Z M 195.832031 245.953125 L 208.816406 245.953125 L 221.746094 229.511719 L 234.625 245.953125 L 247.609375 245.953125 L 221.695312 213.015625 Z M 195.832031 214.640625 L 208.816406 214.640625 L 221.746094 198.195312 L 234.625 214.640625 L 247.609375 214.640625 L 221.695312 181.703125 Z M 195.832031 214.640625"/></g><g clip-path="url(#b)"><path fill="#515D52" d="M 302.355469 181.066406 L 289.371094 181.066406 L 276.441406 197.507812 L 263.5625 181.066406 L 250.578125 181.066406 L 276.496094 214.003906 Z M 302.355469 212.378906 L 289.371094 212.378906 L 276.441406 228.820312 L 263.5625 212.378906 L 250.578125 212.378906 L 276.496094 245.316406 Z M 302.355469 243.691406 L 289.371094 243.691406 L 276.441406 260.136719 L 263.5625 243.691406 L 250.578125 243.691406 L 276.496094 276.628906 Z M 302.355469 243.691406"/></g></svg>